<?xml version="1.0" standalone="no"?>
<!DOCTYPE svg PUBLIC "-//W3C//DTD SVG 20010904//EN"
 "http://www.w3.org/TR/2001/REC-SVG-20010904/DTD/svg10.dtd">
<svg version="1.0" xmlns="http://www.w3.org/2000/svg"
 width="1920.000000pt" height="1080.000000pt" viewBox="0 0 1920.000000 1080.000000"
 preserveAspectRatio="xMidYMid meet">

<g transform="translate(0.000000,1080.000000) scale(0.100000,-0.100000)"
fill="#000000" stroke="none">
<path d="M1885 6990 c-427 -28 -805 -200 -981 -446 -101 -142 -146 -285 -146
-464 1 -197 62 -355 191 -492 88 -94 186 -163 325 -228 189 -89 311 -122 831
-220 322 -61 443 -92 534 -135 86 -41 135 -85 169 -149 37 -73 37 -186 -1
-269 -89 -196 -404 -312 -752 -278 -151 15 -251 42 -363 97 -164 80 -289 222
-343 387 l-22 67 -319 0 -319 0 6 -37 c66 -391 292 -695 640 -863 266 -129
605 -183 997 -160 603 35 1016 276 1148 669 30 89 35 135 35 296 -1 166 -15
228 -80 362 -95 194 -291 348 -574 452 -100 37 -284 84 -451 115 -74 14 -205
39 -290 55 -85 17 -193 38 -240 47 -47 9 -121 28 -165 42 -139 43 -202 82
-243 152 -37 62 -38 171 -3 243 31 64 94 125 169 165 171 91 492 114 738 52
97 -24 244 -96 305 -149 58 -51 117 -136 140 -203 l18 -53 311 -3 310 -2 -5
22 c-2 13 -11 53 -20 90 -106 479 -560 797 -1195 838 -158 10 -191 10 -355 0z"/>
<path d="M4360 6808 c0 -275 -42 -391 -167 -465 -66 -39 -136 -53 -290 -60
l-143 -6 0 -238 0 -239 250 -2 251 -3 -1 -610 c0 -351 4 -653 10 -710 36 -354
190 -529 530 -608 74 -17 133 -20 478 -24 l392 -5 0 246 0 246 -297 0 c-294 0
-299 1 -350 24 -36 17 -60 38 -80 67 l-28 43 -3 668 -3 668 381 0 380 0 0 240
0 240 -470 0 c-274 0 -470 4 -470 9 0 5 61 82 135 171 l135 162 0 164 0 164
-320 0 -320 0 0 -142z"/>
<path d="M12290 5395 l0 -1555 320 0 320 0 0 383 1 382 162 137 c89 76 175
150 191 164 l28 27 33 -34 c32 -32 279 -322 708 -831 l192 -227 408 0 408 -1
-23 29 c-13 15 -135 160 -273 321 -137 161 -355 417 -484 569 -128 152 -254
299 -280 326 l-46 51 -198 -1 c-108 0 -196 3 -195 7 2 4 60 56 129 115 69 59
269 232 444 383 175 151 405 349 509 438 105 90 200 172 211 183 19 19 13 19
-410 19 l-430 0 -161 -143 c-89 -78 -308 -271 -487 -429 -180 -159 -348 -308
-374 -333 -26 -24 -51 -45 -55 -45 -5 0 -8 365 -8 810 l0 810 -320 0 -320 0 0
-1555z"/>
<path d="M7110 6305 c-256 -35 -457 -108 -643 -231 -254 -170 -413 -405 -489
-727 -30 -126 -32 -428 -5 -557 57 -266 164 -461 348 -634 224 -211 526 -331
894 -356 421 -29 800 60 1069 251 232 166 386 390 458 667 28 106 31 134 34
302 4 210 -7 298 -56 451 -150 466 -540 760 -1107 834 -137 18 -372 18 -503 0z
m485 -501 c72 -19 183 -73 247 -121 115 -84 216 -241 259 -403 32 -120 33
-317 1 -444 -40 -160 -134 -307 -257 -402 -79 -60 -135 -88 -242 -119 -226
-66 -497 -30 -675 89 -132 87 -246 247 -293 410 -38 134 -35 365 6 501 81 268
301 462 573 506 78 12 312 2 381 -17z"/>
<path d="M10305 6304 c-510 -69 -890 -334 -1065 -742 -127 -295 -133 -665 -15
-978 58 -154 153 -293 288 -421 227 -214 534 -338 897 -364 729 -51 1298 268
1454 816 14 49 26 99 26 112 l0 23 -313 0 -313 0 -28 -66 c-39 -89 -119 -188
-202 -250 -87 -65 -130 -87 -241 -121 -79 -24 -104 -26 -238 -26 -135 0 -159
2 -240 27 -129 39 -206 86 -305 185 -69 69 -94 103 -127 171 -70 143 -97 299
-82 475 11 120 31 194 79 290 93 185 232 301 440 367 67 20 94 23 240 22 158
0 169 -2 262 -33 200 -66 356 -211 412 -383 5 -17 29 -18 321 -18 l317 0 -7
33 c-13 63 -56 179 -91 250 -178 353 -516 570 -982 632 -132 18 -354 17 -487
-1z"/>
</g>
</svg>
